<?xml version="1.0" encoding="iso-8859-1"?>
<!-- Uploaded to: SVG Repo, www.svgrepo.com, Generator: SVG Repo Mixer Tools -->
<!DOCTYPE svg PUBLIC "-//W3C//DTD SVG 1.1//EN" "http://www.w3.org/Graphics/SVG/1.1/DTD/svg11.dtd">
<svg fill="#000000" version="1.1" id="Capa_1" xmlns="http://www.w3.org/2000/svg" xmlns:xlink="http://www.w3.org/1999/xlink" 
	 width="800px" height="800px" viewBox="0 0 54.148 54.148"
	 xml:space="preserve">
<g>
	<g>
		<path d="M24.382,22.428l-10.194,0.803l-8.092-5.394c-0.082-0.056-0.179-0.084-0.277-0.084H0.502c-0.196,0-0.374,0.113-0.455,0.292
			c-0.082,0.178-0.052,0.387,0.076,0.534l5.08,5.878c-1.401,0.642-2.277,1.58-2.277,2.647c0,1.064,0.877,2.007,2.275,2.646
			l-5.078,5.875c-0.128,0.146-0.158,0.355-0.076,0.535c0.081,0.179,0.259,0.291,0.455,0.291h5.317c0.099,0,0.195-0.028,0.277-0.084
			l8.09-5.393l10.156,0.799l-9.452,15.19c-0.096,0.151-0.101,0.349-0.013,0.506c0.088,0.16,0.255,0.259,0.437,0.259h8.339
			c0.135,0,0.264-0.056,0.357-0.148l14.36-14.693l0.429,0.033c0.871,0.123,1.799,0.193,2.729,0.217l0.166,0.014
			c0.041,0.004,0.078,0.002,0.117-0.006l0.297,0.008c6.752,0,12.041-2.654,12.041-6.041c0-3.39-5.287-6.042-12.041-6.042
			l-0.295,0.005c-0.037-0.006-0.08-0.008-0.119-0.005l-0.143,0.012c-0.957,0.021-1.886,0.096-2.728,0.215l-0.396,0.03L24.009,6.572
			c-0.094-0.096-0.223-0.149-0.357-0.149h-8.338c-0.182,0-0.349,0.099-0.437,0.257c-0.088,0.159-0.083,0.353,0.013,0.507
			L24.382,22.428z M6.045,23.904l-4.451-5.149h4.073l6.908,4.604l-2.854,0.225c-0.871,0-1.695,0.084-2.454,0.233L6.045,23.904z
			 M5.666,35.457H1.594l4.451-5.149l1.194,0.086c0.755,0.149,1.574,0.234,2.437,0.234c0.002,0,0.004,0,0.006,0l2.891,0.228
			L5.666,35.457z M23.444,46.727h-7.228l9.25-14.859l11.608,0.914L23.444,46.727z M38.936,22.284
			c0.834-0.117,1.723-0.187,2.666-0.209l0.072-0.006c0.021,0.004,0.047,0.005,0.063,0.004l0.364-0.009
			c5.984,0,11.043,2.309,11.043,5.042c0,2.73-5.057,5.041-11.043,5.041l-0.364-0.01c-0.002,0-0.006,0-0.009,0
			c-0.02,0-0.038,0-0.059,0.002l-0.1-0.006c-0.918-0.021-1.807-0.092-2.67-0.211L38.668,31.9c-0.084-0.095-0.189-0.168-0.322-0.177
			l-13.072-0.942c-0.09-0.008-0.172,0.016-0.246,0.049L14.47,30.002c-0.076-0.062-0.168-0.104-0.27-0.107L7.364,29.4
			c-2.106-0.432-3.443-1.4-3.443-2.294c0-0.896,1.339-1.867,3.465-2.296l6.814-0.492c0.1-0.007,0.189-0.049,0.265-0.106
			l10.799-0.851c0.003,0,0.006,0,0.008,0l13.073-0.942c0.103-0.008,0.191-0.048,0.271-0.108L38.936,22.284z M23.444,7.42
			l13.69,14.006l-11.628,0.915L16.217,7.417L23.444,7.42L23.444,7.42z"/>
		<path d="M0.5,7.42h12.647c0.276,0,0.5-0.225,0.5-0.5c0-0.276-0.224-0.5-0.5-0.5H0.5C0.224,6.42,0,6.644,0,6.92
			C0,7.195,0.224,7.42,0.5,7.42z"/>
		<path d="M0.5,12.253h12.647c0.276,0,0.5-0.225,0.5-0.5c0-0.276-0.224-0.5-0.5-0.5H0.5c-0.276,0-0.5,0.224-0.5,0.5
			C0,12.028,0.224,12.253,0.5,12.253z"/>
		<path d="M0.5,42.834h12.647c0.276,0,0.5-0.225,0.5-0.5c0-0.274-0.224-0.5-0.5-0.5H0.5c-0.276,0-0.5,0.226-0.5,0.5
			C0,42.609,0.224,42.834,0.5,42.834z"/>
		<path d="M0.5,47.668h12.647c0.276,0,0.5-0.225,0.5-0.5c0-0.274-0.224-0.5-0.5-0.5H0.5c-0.276,0-0.5,0.226-0.5,0.5
			C0,47.443,0.224,47.668,0.5,47.668z"/>
	</g>
</g>
</svg>